<svg width="420" height="420" viewBox="0 0 420 420" xmlns="http://www.w3.org/2000/svg">
  <defs>
    <linearGradient id="heroBg" x1="0%" y1="0%" x2="100%" y2="100%">
      <stop offset="0%" stop-color="#E4F8EF"/>
      <stop offset="55%" stop-color="#DDEEFF"/>
      <stop offset="100%" stop-color="#FFE9D8"/>
    </linearGradient>
    <linearGradient id="heroAccent" x1="0%" y1="0%" x2="0%" y2="100%">
      <stop offset="0%" stop-color="#37B48C"/>
      <stop offset="100%" stop-color="#2470B3"/>
    </linearGradient>
  </defs>
  <rect width="420" height="420" rx="210" fill="url(#heroBg)"/>
  <circle cx="320" cy="106" r="60" fill="#FFFFFF" fill-opacity="0.42"/>
  <circle cx="110" cy="332" r="68" fill="#FFFFFF" fill-opacity="0.3"/>
  <rect x="126" y="212" width="168" height="132" rx="22" fill="#FFFFFF" fill-opacity="0.9"/>
  <rect x="142" y="228" width="80" height="16" rx="8" fill="#D6EAFD"/>
  <rect x="142" y="254" width="136" height="12" rx="6" fill="#E8F2FC"/>
  <rect x="142" y="274" width="112" height="12" rx="6" fill="#E8F2FC"/>
  <rect x="142" y="302" width="92" height="24" rx="12" fill="url(#heroAccent)"/>
  <circle cx="214" cy="152" r="50" fill="#FFF3E7"/>
  <circle cx="214" cy="146" r="24" fill="#FFD8BF"/>
  <rect x="180" y="170" width="68" height="48" rx="24" fill="#63BDA3"/>
  <path d="M198 145 C202 140, 210 140, 214 145 C218 150, 226 150, 230 145" stroke="#B87B5A" stroke-width="3" fill="none" stroke-linecap="round"/>
  <circle cx="206" cy="143" r="2.5" fill="#7C4A2E"/>
  <circle cx="222" cy="143" r="2.5" fill="#7C4A2E"/>
  <circle cx="286" cy="186" r="24" fill="#37B48C"/>
  <path d="M276 186 L285 194 L299 178" stroke="#FFFFFF" stroke-width="4.5" stroke-linecap="round" stroke-linejoin="round"/>
</svg>
